<svg xmlns="http://www.w3.org/2000/svg" viewBox="0 0 40 40" fill="none">
  <!-- Outer hexagon (orange border) -->
  <path d="M20 2L36.66 11.5V30.5L20 40L3.34 30.5V11.5L20 2Z" fill="none" stroke="#E8650A" stroke-width="2.5"/>
  <!-- Inner hexagon (dark, subtle) -->
  <path d="M20 8L31.32 14.5V27.5L20 34L8.68 27.5V14.5L20 8Z" fill="#1a1f2e" stroke="#2a5070" stroke-width="0.8"/>
  <!-- Network dots at inner hexagon vertices -->
  <circle cx="20" cy="8" r="1.5" fill="#3a8bbd"/>
  <circle cx="31.32" cy="14.5" r="1.5" fill="#3a8bbd"/>
  <circle cx="31.32" cy="27.5" r="1.5" fill="#3a8bbd"/>
  <circle cx="20" cy="34" r="1.5" fill="#3a8bbd"/>
  <circle cx="8.68" cy="27.5" r="1.5" fill="#3a8bbd"/>
  <circle cx="8.68" cy="14.5" r="1.5" fill="#3a8bbd"/>
  <!-- Flame droplet -->
  <defs>
    <linearGradient id="flame" x1="20" y1="13" x2="20" y2="30" gradientUnits="userSpaceOnUse">
      <stop offset="0%" stop-color="#FFD54F"/>
      <stop offset="40%" stop-color="#FF9800"/>
      <stop offset="100%" stop-color="#E65100"/>
    </linearGradient>
    <radialGradient id="glow" cx="20" cy="18" r="6" gradientUnits="userSpaceOnUse">
      <stop offset="0%" stop-color="#FFF9C4"/>
      <stop offset="100%" stop-color="#FFB300" stop-opacity="0"/>
    </radialGradient>
  </defs>
  <!-- Flame body -->
  <path d="M20 12C20 12 14 19 14 23.5C14 27.2 16.7 30 20 30C23.3 30 26 27.2 26 23.5C26 19 20 12 20 12Z" fill="url(#flame)"/>
  <!-- Inner glow -->
  <ellipse cx="20" cy="22" rx="3.5" ry="4.5" fill="url(#glow)" opacity="0.6"/>
</svg>
